/vscmnt/brussel_pixiu_data/_data_brussel/112/vsc11236/PredSimResults/SUBJ11opt3D/expIG/worker_07.mot
version=1
nRows=7
nColumns=50
inDegrees=yes
endheader
                time	         pelvis_tilt	         pelvis_list	     pelvis_rotation	           pelvis_tx	           pelvis_ty	           pelvis_tz	       hip_flexion_r	     hip_adduction_r	      hip_rotation_r	        knee_angle_r	       ankle_angle_r	         mtp_angle_r	       hip_flexion_l	     hip_adduction_l	      hip_rotation_l	        knee_angle_l	       ankle_angle_l	         mtp_angle_l	    lumbar_extension	      lumbar_bending	     lumbar_rotation	 ercspn_r/activation	 intobl_r/activation	 extobl_r/activation	    abd_r/activation	    add_r/activation	hamstrings_r/activation	bifemsh_r/activation	glut_max_r/activation	iliopsoas_r/activation	rect_fem_r/activation	  vasti_r/activation	gastroc_r/activation	 soleus_r/activation	tib_ant_r/activation	 ercspn_l/activation	 intobl_l/activation	 extobl_l/activation	    abd_l/activation	    add_l/activation	hamstrings_l/activation	bifemsh_l/activation	glut_max_l/activation	iliopsoas_l/activation	rect_fem_l/activation	  vasti_l/activation	gastroc_l/activation	 soleus_l/activation	tib_ant_l/activation	
          1.91676218	         -3.83071562	          1.44898124	         -5.92670715	          2.30011462	          0.93745974	          0.00531989	        -14.37117408	         -3.42823607	         -1.75146561	        -11.61644507	         11.49215535	         31.15931487	         32.48218071	         -1.72426158	         -5.20773688	         -9.46032980	          2.24757462	          0.24677142	        -14.10515524	          1.13417440	          3.13941666	          0.01000000	          0.00999999	          0.00999999	          0.03326780	          0.01000000	          0.01592312	          0.24521923	          0.02034897	          0.11369589	          0.00999999	          0.00999999	          0.15844843	          0.30765815	          0.01413870	          0.03816855	          0.23967837	          0.05378224	          0.00999999	          0.19976819	          0.04747639	          0.16503708	          0.05526397	          0.10109648	          0.03835215	          0.01171901	          0.00999999	          0.00999999	          0.44537501	
          1.92954059	         -3.91620864	          1.51817315	         -6.07227386	          2.31940134	          0.93533599	          0.00444551	        -15.04790705	         -3.69836916	         -2.03478595	        -12.24303349	         10.48366954	         33.05616151	         32.31820777	         -1.57014189	         -5.37444491	        -10.79160025	          1.62863627	          0.24666559	        -13.65288284	          0.65007684	          3.34775671	          0.04124167	          0.00999999	          0.00999999	          0.02742665	          0.06920219	          0.01761990	          0.20216370	          0.01677610	          0.10570945	          0.00999999	          0.00999999	          0.13062810	          0.28235441	          0.01165623	          0.03146692	          0.19759571	          0.04433917	          0.00999999	          0.21402951	          0.04452650	          0.13605991	          0.14791509	          0.08334599	          0.03161829	          0.00999999	          0.01389575	          0.01280847	          0.47687553	
          1.94231901	         -3.97939429	          1.58442500	         -6.18911900	          2.33904150	          0.93347105	          0.00352217	        -15.57895306	         -3.97177606	         -2.34413088	        -13.18123942	          9.34608630	         34.98684536	         32.08025782	         -1.45586469	         -5.50322915	        -12.29579487	          1.13529174	          0.21701991	        -13.17376760	          0.16420813	          3.54691511	          0.03400048	          0.00999999	          0.00999999	          0.02261109	          0.05705169	          0.01452620	          0.16666785	          0.01383056	          0.17336784	          0.00999999	          0.00999999	          0.10769245	          0.25409579	          0.00999999	          0.03291750	          0.16290191	          0.03655411	          0.09465089	          0.25275777	          0.04548243	          0.11217055	          0.14551378	          0.06871212	          0.02606676	          0.00999999	          0.01145594	          0.01055956	          0.55621956	
          1.95509742	         -4.02319643	          1.62945145	         -6.26989883	          2.35867199	          0.93209169	          0.00252391	        -15.82362548	         -4.23279533	         -2.66205220	        -14.62751265	          8.06864509	         36.93018360	         31.88489089	         -1.36954936	         -5.67757050	        -13.86325526	          0.45749314	          0.18376463	        -12.71326538	         -0.29973861	          3.72933866	          0.06786012	          0.00999999	          0.00999999	          0.01864104	          0.08865943	          0.01221460	          0.13740436	          0.01140219	          0.17742292	          0.00999999	          0.00999999	          0.08878384	          0.21596708	          0.00999999	          0.04402325	          0.13429963	          0.03013595	          0.12950644	          0.31939246	          0.04190158	          0.09247567	          0.16200333	          0.05664766	          0.02148997	          0.03016075	          0.00999999	          0.00999999	          0.61588797	
          1.96787584	         -4.04700638	          1.65924343	         -6.31732498	          2.37811141	          0.93130190	          0.00146111	        -15.68946911	         -4.49266504	         -2.97768158	        -16.72042899	          6.67158602	         38.78032029	         31.77982920	         -1.30265286	         -5.87201342	        -15.63302709	         -0.01967576	          0.12702806	        -12.28905076	         -0.74841810	          3.89121479	          0.10164790	          0.00999999	          0.00999999	          0.01536805	          0.15675452	          0.01006997	          0.11327894	          0.00999999	          0.17658838	          0.00999999	          0.00999999	          0.07319520	          0.17804764	          0.00999999	          0.04575024	          0.11071934	          0.02484468	          0.16097380	          0.35753650	          0.04590230	          0.07623882	          0.16843796	          0.04670148	          0.01771676	          0.09509215	          0.00999999	          0.00999999	          0.64143479	
          1.98065425	         -4.05301260	          1.67664227	         -6.33057944	          2.39722418	          0.93121936	          0.00035958	        -15.10405914	         -4.75607476	         -3.29955445	        -19.55233389	          5.14792632	         40.36320139	         31.67796810	         -1.23700004	         -6.04106955	        -17.47435368	         -0.10650252	          0.06797139	        -11.91040074	         -1.18562175	          4.02718332	          0.13003227	          0.00999999	          0.00999999	          0.01266973	          0.20460238	          0.01532715	          0.09338950	          0.00999999	          0.14558304	          0.00999999	          0.00999999	          0.06034360	          0.14678608	          0.00999999	          0.03771742	          0.09127927	          0.02048246	          0.17635718	          0.36843777	          0.04365491	          0.06285283	          0.18435360	          0.03850165	          0.01460606	          0.13952580	          0.00999999	          0.00999999	          0.62162930	
          1.99343267	         -4.04380333	          1.68148502	         -6.30718842	          2.41587869	          0.93192664	         -0.00074727	        -14.02602948	         -5.02881266	         -3.65987250	        -23.17645240	          3.62540284	         41.16074386	         31.50835462	         -1.15849968	         -6.15072100	        -19.25602712	          0.23927863	          0.02553684	        -11.58712207	         -1.61329280	          4.13149360	          0.13602574	          0.00999999	          0.00999999	          0.01044518	          0.23488712	          0.01705512	          0.07699220	          0.00999999	          0.12002161	          0.00999999	          0.00999999	          0.04974849	          0.12101342	          0.00999999	          0.03109501	          0.07525248	          0.01688616	          0.18462722	          0.37458036	          0.04716481	          0.05181715	          0.17002645	          0.03174154	          0.01204153	          0.16856267	          0.00999999	          0.00999999	          0.55099754	
